# This file uses centimeters as units for non-parametric coordinates.

mtllib cloud_01.mtl
g default
v -0.286728 -0.070295 -0.110941
v -0.084318 -0.187641 -0.130709
v -0.197196 -0.354948 -0.018892
v -0.286728 -0.070295 -0.110941
v -0.197196 -0.354948 -0.018892
v -0.399605 -0.237603 0.000874
v 0.229036 0.324149 -0.218717
v 0.198882 0.119603 -0.346696
v 0.084703 0.323333 -0.414404
v 0.198882 0.119603 -0.346696
v 0.229036 0.324149 -0.218717
v 0.376523 0.240051 -0.119056
v 0.198882 0.119603 -0.346696
v 0.376523 0.240051 -0.119056
v 0.346367 0.035503 -0.247035
v 0.198882 0.119603 -0.346696
v 0.028559 -0.020334 -0.242525
v -0.032693 0.110469 -0.420298
v 0.198882 0.119603 -0.346696
v -0.032693 0.110469 -0.420298
v 0.084703 0.323333 -0.414404
v 0.229036 0.324149 -0.218717
v 0.084703 0.323333 -0.414404
v 0.016100 0.441436 -0.213221
v -0.256573 0.134251 0.017039
v -0.286728 -0.070295 -0.110941
v -0.399605 -0.237603 0.000874
v -0.256573 0.134251 0.017039
v -0.399605 -0.237603 0.000874
v -0.369451 -0.033056 0.128853
v 0.028559 -0.020334 -0.242525
v 0.198882 0.119603 -0.346696
v 0.346367 0.035503 -0.247035
v 0.028559 -0.020334 -0.242525
v 0.346367 0.035503 -0.247035
v 0.176045 -0.104432 -0.142864
v -0.032693 0.110469 -0.420298
v 0.028559 -0.020334 -0.242525
v -0.173851 0.097012 -0.222757
v 0.084703 0.323333 -0.414404
v -0.032693 0.110469 -0.420298
v -0.145660 0.309371 -0.337805
v 0.229036 0.324149 -0.218717
v 0.016100 0.441436 -0.213221
v 0.087879 0.310692 -0.021175
v 0.229036 0.324149 -0.218717
v 0.087879 0.310692 -0.021175
v 0.235364 0.226595 0.078485
v 0.229036 0.324149 -0.218717
v 0.235364 0.226595 0.078485
v 0.376523 0.240051 -0.119056
v 0.103630 -0.153020 0.318003
v 0.122487 0.059285 0.190302
v 0.009610 -0.108022 0.302117
v 0.103630 -0.153020 0.318003
v 0.009610 -0.108022 0.302117
v -0.009249 -0.320327 0.429817
v -0.032693 0.110469 -0.420298
v -0.173851 0.097012 -0.222757
v -0.145660 0.309371 -0.337805
v 0.084703 0.323333 -0.414404
v -0.145660 0.309371 -0.337805
v 0.016100 0.441436 -0.213221
v 0.087879 0.310692 -0.021175
v 0.016100 0.441436 -0.213221
v -0.143695 0.301560 -0.094777
v -0.024999 0.143383 0.090640
v -0.256573 0.134251 0.017039
v -0.369451 -0.033056 0.128853
v -0.024999 0.143383 0.090640
v -0.369451 -0.033056 0.128853
v -0.137876 -0.023925 0.202456
v -0.084318 -0.187641 -0.130709
v 0.063168 -0.271739 -0.031049
v -0.049709 -0.439046 0.080767
v -0.084318 -0.187641 -0.130709
v -0.049709 -0.439046 0.080767
v -0.197196 -0.354948 -0.018892
v -0.145660 0.309371 -0.337805
v -0.173851 0.097012 -0.222757
v -0.143695 0.301560 -0.094777
v 0.016100 0.441436 -0.213221
v -0.145660 0.309371 -0.337805
v -0.143695 0.301560 -0.094777
v 0.346367 0.035503 -0.247035
v 0.376523 0.240051 -0.119056
v 0.348331 0.027692 -0.004007
v 0.346367 0.035503 -0.247035
v 0.348331 0.027692 -0.004007
v 0.176045 -0.104432 -0.142864
v 0.348331 0.027692 -0.004007
v 0.376523 0.240051 -0.119056
v 0.235364 0.226595 0.078485
v 0.176045 -0.104432 -0.142864
v 0.348331 0.027692 -0.004007
v 0.216506 0.014287 0.206188
v 0.348331 0.027692 -0.004007
v 0.235364 0.226595 0.078485
v 0.216506 0.014287 0.206188
v -0.137876 -0.023925 0.202456
v -0.265799 -0.236846 0.182288
v -0.009249 -0.320327 0.429817
v -0.137876 -0.023925 0.202456
v -0.009249 -0.320327 0.429817
v 0.009610 -0.108022 0.302117
v -0.265799 -0.236846 0.182288
v -0.197196 -0.354948 -0.018892
v -0.049709 -0.439046 0.080767
v -0.265799 -0.236846 0.182288
v -0.049709 -0.439046 0.080767
v -0.009249 -0.320327 0.429817
v -0.197196 -0.354948 -0.018892
v -0.265799 -0.236846 0.182288
v -0.399605 -0.237603 0.000874
v -0.265799 -0.236846 0.182288
v -0.137876 -0.023925 0.202456
v -0.369451 -0.033056 0.128853
v -0.399605 -0.237603 0.000874
v -0.265799 -0.236846 0.182288
v -0.369451 -0.033056 0.128853
v 0.063168 -0.271739 -0.031049
v 0.103630 -0.153020 0.318003
v -0.009249 -0.320327 0.429817
v 0.063168 -0.271739 -0.031049
v -0.009249 -0.320327 0.429817
v -0.049709 -0.439046 0.080767
v 0.122487 0.059285 0.190302
v -0.024999 0.143383 0.090640
v -0.137876 -0.023925 0.202456
v 0.122487 0.059285 0.190302
v -0.137876 -0.023925 0.202456
v 0.009610 -0.108022 0.302117
v 0.235364 0.226595 0.078485
v 0.087879 0.310692 -0.021175
v -0.024999 0.143383 0.090640
v 0.235364 0.226595 0.078485
v -0.024999 0.143383 0.090640
v 0.122487 0.059285 0.190302
v 0.176045 -0.104432 -0.142864
v 0.216506 0.014287 0.206188
v 0.103630 -0.153020 0.318003
v 0.176045 -0.104432 -0.142864
v 0.103630 -0.153020 0.318003
v 0.063168 -0.271739 -0.031049
v 0.028559 -0.020334 -0.242525
v 0.176045 -0.104432 -0.142864
v 0.063168 -0.271739 -0.031049
v 0.028559 -0.020334 -0.242525
v 0.063168 -0.271739 -0.031049
v -0.084318 -0.187641 -0.130709
v 0.087879 0.310692 -0.021175
v -0.143695 0.301560 -0.094777
v -0.256573 0.134251 0.017039
v 0.087879 0.310692 -0.021175
v -0.256573 0.134251 0.017039
v -0.024999 0.143383 0.090640
v 0.216506 0.014287 0.206188
v 0.235364 0.226595 0.078485
v 0.122487 0.059285 0.190302
v 0.216506 0.014287 0.206188
v 0.122487 0.059285 0.190302
v 0.103630 -0.153020 0.318003
v -0.143695 0.301560 -0.094777
v -0.173851 0.097012 -0.222757
v -0.286728 -0.070295 -0.110941
v -0.143695 0.301560 -0.094777
v -0.286728 -0.070295 -0.110941
v -0.256573 0.134251 0.017039
v -0.173851 0.097012 -0.222757
v 0.028559 -0.020334 -0.242525
v -0.084318 -0.187641 -0.130709
v -0.173851 0.097012 -0.222757
v -0.084318 -0.187641 -0.130709
v -0.286728 -0.070295 -0.110941
vn -0.304740 -0.378471 -0.874010
vn -0.304740 -0.378471 -0.874010
vn -0.304740 -0.378471 -0.874010
vn -0.304740 -0.378471 -0.874010
vn -0.304740 -0.378471 -0.874010
vn -0.304740 -0.378471 -0.874010
vn 0.779657 0.245495 -0.576080
vn 0.779657 0.245495 -0.576080
vn 0.779657 0.245495 -0.576080
vn 0.650644 0.331502 -0.683205
vn 0.650644 0.331502 -0.683205
vn 0.650644 0.331502 -0.683205
vn 0.650644 0.331502 -0.683205
vn 0.650644 0.331502 -0.683205
vn 0.650644 0.331502 -0.683205
vn 0.228605 -0.744838 -0.626862
vn 0.228605 -0.744838 -0.626862
vn 0.228605 -0.744838 -0.626862
vn 0.304905 -0.142090 -0.941724
vn 0.304905 -0.142090 -0.941724
vn 0.304905 -0.142090 -0.941724
vn 0.448134 0.829232 -0.333991
vn 0.448134 0.829232 -0.333991
vn 0.448134 0.829232 -0.333991
vn -0.867785 0.349155 -0.353609
vn -0.867785 0.349155 -0.353609
vn -0.867785 0.349155 -0.353609
vn -0.867785 0.349155 -0.353609
vn -0.867785 0.349155 -0.353609
vn -0.867785 0.349155 -0.353609
vn 0.108251 -0.675052 -0.729785
vn 0.108251 -0.675052 -0.729785
vn 0.108251 -0.675052 -0.729785
vn 0.108251 -0.675052 -0.729785
vn 0.108251 -0.675052 -0.729785
vn 0.108251 -0.675052 -0.729785
vn -0.488326 -0.774671 -0.401775
vn -0.488326 -0.774671 -0.401775
vn -0.488326 -0.774671 -0.401775
vn -0.320034 0.202086 -0.925602
vn -0.320034 0.202086 -0.925602
vn -0.320034 0.202086 -0.925602
vn 0.453904 0.806274 0.379332
vn 0.453904 0.806274 0.379332
vn 0.453904 0.806274 0.379332
vn 0.319000 0.902479 0.289431
vn 0.319000 0.902479 0.289431
vn 0.319000 0.902479 0.289431
vn 0.319000 0.902479 0.289431
vn 0.319000 0.902479 0.289431
vn 0.319000 0.902479 0.289431
vn 0.097701 0.506563 0.856650
vn 0.097701 0.506563 0.856650
vn 0.097701 0.506563 0.856650
vn 0.097701 0.506563 0.856650
vn 0.097701 0.506563 0.856650
vn 0.097701 0.506563 0.856650
vn -0.788988 -0.208355 -0.578002
vn -0.788988 -0.208355 -0.578002
vn -0.788988 -0.208355 -0.578002
vn -0.231569 0.802400 -0.550028
vn -0.231569 0.802400 -0.550028
vn -0.231569 0.802400 -0.550028
vn -0.222232 0.765317 0.604071
vn -0.222232 0.765317 0.604071
vn -0.222232 0.765317 0.604071
vn -0.253339 0.649858 0.716592
vn -0.253339 0.649858 0.716592
vn -0.253339 0.649858 0.716592
vn -0.253339 0.649858 0.716592
vn -0.253339 0.649858 0.716592
vn -0.253339 0.649858 0.716592
vn 0.162978 -0.621891 -0.765957
vn 0.162978 -0.621891 -0.765957
vn 0.162978 -0.621891 -0.765957
vn 0.162978 -0.621891 -0.765957
vn 0.162978 -0.621891 -0.765957
vn 0.162978 -0.621891 -0.765957
vn -0.990324 0.138216 0.012438
vn -0.990324 0.138216 0.012438
vn -0.990324 0.138216 0.012438
vn -0.645802 0.762923 0.029798
vn -0.645802 0.762923 0.029798
vn -0.645802 0.762923 0.029798
vn 0.990324 -0.138216 -0.012438
vn 0.990324 -0.138216 -0.012438
vn 0.990324 -0.138216 -0.012438
vn 0.623460 -0.781275 -0.030117
vn 0.623460 -0.781275 -0.030117
vn 0.623460 -0.781275 -0.030117
vn 0.788988 0.208355 0.578002
vn 0.788988 0.208355 0.578002
vn 0.788988 0.208355 0.578002
vn 0.464010 -0.853674 0.236508
vn 0.464010 -0.853674 0.236508
vn 0.464010 -0.853674 0.236508
vn 0.814407 0.244288 0.526370
vn 0.814407 0.244288 0.526370
vn 0.814407 0.244288 0.526370
vn -0.511199 0.372344 0.774620
vn -0.511199 0.372344 0.774620
vn -0.511199 0.372344 0.774620
vn -0.511199 0.372344 0.774620
vn -0.511199 0.372344 0.774620
vn -0.511199 0.372344 0.774620
vn -0.573308 -0.762819 0.299041
vn -0.573308 -0.762819 0.299041
vn -0.573308 -0.762819 0.299041
vn -0.573308 -0.762819 0.299041
vn -0.573308 -0.762819 0.299041
vn -0.573308 -0.762819 0.299041
vn -0.448134 -0.829232 0.333991
vn -0.448134 -0.829232 0.333991
vn -0.448134 -0.829232 0.333991
vn -0.304896 0.093385 0.947796
vn -0.304896 0.093385 0.947796
vn -0.304896 0.093385 0.947796
vn -0.779657 -0.245495 0.576080
vn -0.779657 -0.245495 0.576080
vn -0.779657 -0.245495 0.576080
vn 0.849990 -0.520889 0.078687
vn 0.849990 -0.520889 0.078687
vn 0.849990 -0.520889 0.078687
vn 0.849990 -0.520889 0.078687
vn 0.849990 -0.520889 0.078687
vn 0.849990 -0.520889 0.078687
vn -0.162978 0.621891 0.765957
vn -0.162978 0.621891 0.765957
vn -0.162978 0.621891 0.765957
vn -0.162978 0.621891 0.765957
vn -0.162978 0.621891 0.765957
vn -0.162978 0.621891 0.765957
vn -0.162978 0.621891 0.765957
vn -0.162978 0.621891 0.765957
vn -0.162978 0.621891 0.765957
vn -0.162978 0.621891 0.765957
vn -0.162978 0.621891 0.765957
vn -0.162978 0.621891 0.765957
vn 0.849990 -0.520889 0.078687
vn 0.849990 -0.520889 0.078687
vn 0.849990 -0.520889 0.078687
vn 0.849990 -0.520889 0.078687
vn 0.849990 -0.520889 0.078687
vn 0.849990 -0.520889 0.078687
vn 0.162978 -0.621891 -0.765957
vn 0.162978 -0.621891 -0.765957
vn 0.162978 -0.621891 -0.765957
vn 0.162978 -0.621891 -0.765957
vn 0.162978 -0.621891 -0.765957
vn 0.162978 -0.621891 -0.765957
vn -0.253339 0.649858 0.716592
vn -0.253339 0.649858 0.716592
vn -0.253339 0.649858 0.716592
vn -0.253339 0.649858 0.716592
vn -0.253339 0.649858 0.716592
vn -0.253339 0.649858 0.716592
vn 0.097701 0.506563 0.856650
vn 0.097701 0.506563 0.856650
vn 0.097701 0.506563 0.856650
vn 0.097701 0.506563 0.856650
vn 0.097701 0.506563 0.856650
vn 0.097701 0.506563 0.856650
vn -0.867785 0.349155 -0.353609
vn -0.867785 0.349155 -0.353609
vn -0.867785 0.349155 -0.353609
vn -0.867785 0.349155 -0.353609
vn -0.867785 0.349155 -0.353609
vn -0.867785 0.349155 -0.353609
vn -0.304740 -0.378471 -0.874010
vn -0.304740 -0.378471 -0.874010
vn -0.304740 -0.378471 -0.874010
vn -0.304740 -0.378471 -0.874010
vn -0.304740 -0.378471 -0.874010
vn -0.304740 -0.378471 -0.874010
s off
g model__1_:Mesh
usemtl initialShadingGroup
f 1//1 2//2 3//3
f 4//4 5//5 6//6
f 7//7 8//8 9//9
f 10//10 11//11 12//12
f 13//13 14//14 15//15
f 16//16 17//17 18//18
f 19//19 20//20 21//21
f 22//22 23//23 24//24
f 25//25 26//26 27//27
f 28//28 29//29 30//30
f 31//31 32//32 33//33
f 34//34 35//35 36//36
f 37//37 38//38 39//39
f 40//40 41//41 42//42
f 43//43 44//44 45//45
f 46//46 47//47 48//48
f 49//49 50//50 51//51
f 52//52 53//53 54//54
f 55//55 56//56 57//57
f 58//58 59//59 60//60
f 61//61 62//62 63//63
f 64//64 65//65 66//66
f 67//67 68//68 69//69
f 70//70 71//71 72//72
f 73//73 74//74 75//75
f 76//76 77//77 78//78
f 79//79 80//80 81//81
f 82//82 83//83 84//84
f 85//85 86//86 87//87
f 88//88 89//89 90//90
f 91//91 92//92 93//93
f 94//94 95//95 96//96
f 97//97 98//98 99//99
f 100//100 101//101 102//102
f 103//103 104//104 105//105
f 106//106 107//107 108//108
f 109//109 110//110 111//111
f 112//112 113//113 114//114
f 115//115 116//116 117//117
f 118//118 119//119 120//120
f 121//121 122//122 123//123
f 124//124 125//125 126//126
f 127//127 128//128 129//129
f 130//130 131//131 132//132
f 133//133 134//134 135//135
f 136//136 137//137 138//138
f 139//139 140//140 141//141
f 142//142 143//143 144//144
f 145//145 146//146 147//147
f 148//148 149//149 150//150
f 151//151 152//152 153//153
f 154//154 155//155 156//156
f 157//157 158//158 159//159
f 160//160 161//161 162//162
f 163//163 164//164 165//165
f 166//166 167//167 168//168
f 169//169 170//170 171//171
f 172//172 173//173 174//174
