<?xml version="1.0" encoding="UTF-8"?>
<svg width="210px" height="140px" viewBox="0 0 210 140" version="1.1" xmlns="http://www.w3.org/2000/svg" xmlns:xlink="http://www.w3.org/1999/xlink">
    <!-- Generator: Sketch 60.1 (88133) - https://sketch.com -->
    <title>Artboard Copy</title>
    <desc>Created with Sketch.</desc>
    <g id="Artboard-Copy" stroke="none" stroke-width="1" fill="none" fill-rule="evenodd">
        <g id="Group-2" transform="translate(2.000000, -41.000000)" fill="#FFFFFF" stroke="#AFB7C4">
            <polygon id="Rectangle-Copy-18" stroke-linecap="round" stroke-linejoin="round" transform="translate(102.467189, 144.132298) rotate(45.000000) translate(-102.467189, -144.132298) " points="89.6599945 114.831795 173.121296 70.490288 115.274383 173.432801 31.8130823 217.774308"></polygon>
            <polygon id="Rectangle-Copy" stroke-linecap="round" stroke-linejoin="round" transform="translate(102.467189, 134.172620) rotate(45.000000) translate(-102.467189, -134.172620) " points="90.2011228 106.059984 170.135859 63.5160474 114.733255 162.285256 34.7985192 204.829193"></polygon>
            <g id="Group-19" transform="translate(2.260595, 45.316700)">
                <polygon id="Rectangle-Copy-11" stroke-linecap="round" stroke-linejoin="round" transform="translate(125.843433, 66.198488) rotate(45.000000) translate(-125.843433, -66.198488) " points="122.210493 12.22876 165.069046 55.0873123 129.476372 120.168217 86.6178195 77.3096646"></polygon>
                <polygon id="Rectangle-Copy-12" stroke-linecap="round" stroke-linejoin="round" transform="translate(60.589003, 67.922034) rotate(45.000000) translate(-60.589003, -67.922034) " points="12.0329453 61.3128858 54.8914977 104.171438 109.145061 74.5311823 66.2865089 31.6726299"></polygon>
                <g id="Group-18" transform="translate(72.475621, 83.027196) scale(-1, 1) translate(-72.475621, -83.027196) translate(61.475621, 71.527196)">
                    <polygon id="Rectangle-Copy-3" stroke-linecap="round" stroke-linejoin="round" transform="translate(11.354370, 11.559558) scale(-1, 1) rotate(45.000000) translate(-11.354370, -11.559558) " points="3.14567155 8.36437264 9.75778145 4.80506715 19.5630685 14.7547432 12.9509586 18.3140487"></polygon>
                    <line x1="13.0197034" y1="14.2604414" x2="10.0936662" y2="15.1343808" id="Path-Copy-8"></line>
                    <polygon id="Rectangle-Copy-5" stroke-linecap="round" stroke-linejoin="round" transform="translate(13.350258, 7.160420) scale(-1, 1) rotate(45.000000) translate(-13.350258, -7.160420) " points="9.6635256 5.66458909 16.2756355 2.1052836 17.03699 8.65625025 10.4248801 12.2155557"></polygon>
                </g>
            </g>
            <path d="M117.835854,109.895204 C120.531755,108.428284 123.871911,108.913369 126.039165,111.086557 L148.015607,133.123168 L148.015607,133.123168 L138.920559,138.072055 L116.944117,116.035445 C115.432854,114.520044 115.436208,112.066447 116.951609,110.555184 C117.213368,110.294139 117.511134,110.071894 117.835854,109.895204 Z" id="Rectangle-Copy-4" stroke-linecap="round" stroke-linejoin="round" transform="translate(130.651968, 122.746408) scale(-1, 1) rotate(45.000000) translate(-130.651968, -122.746408) "></path>
            <g id="Group-19-Copy-2" transform="translate(28.739166, 0.454131)" stroke-linecap="round" stroke-linejoin="round">
                <polygon id="Rectangle-Copy-11" transform="translate(100.225298, 79.324902) rotate(45.000000) translate(-100.225298, -79.324902) " points="117.707188 43.1661745 120.861041 46.3200274 82.7434074 115.48363 79.5895545 112.329777"></polygon>
                <polygon id="Rectangle-Copy-13" transform="translate(70.453009, 68.518212) rotate(45.000000) translate(-70.453009, -68.518212) " points="116.628571 18.9487807 62.3950806 48.9240403 24.2774468 118.087643 78.5109371 88.112383"></polygon>
                <polygon id="Rectangle-Copy-12" transform="translate(32.523364, 81.724730) rotate(45.000000) translate(-32.523364, -81.724730) " points="3.82969251 95.1354332 6.98354539 98.2892861 61.2170356 68.3140265 58.0631827 65.1601736"></polygon>
            </g>
            <g id="Group-19-Copy-3" transform="translate(46.961515, 20.946038)" stroke-linecap="round" stroke-linejoin="round">
                <polygon id="Rectangle-Copy-13" transform="translate(70.138835, 35.526152) rotate(45.000000) translate(-70.138835, -35.526152) " points="101.271202 17.074366 60.9508477 38.6489412 39.0064672 53.9779383 79.3268218 32.403363"></polygon>
                <polygon id="Rectangle-Copy-14" transform="translate(39.795891, 44.388040) rotate(45.000000) translate(-39.795891, -44.388040) " points="64.173278 13.5432484 23.8529234 35.1178237 15.4185033 75.2328323 55.7388579 53.658257"></polygon>
                <polygon id="Rectangle-Copy-6" transform="translate(74.738292, 53.655188) rotate(45.000000) translate(-74.738292, -53.655188) " points="67.8548076 40.965542 89.976545 26.1062341 59.5000388 81.2041414"></polygon>
            </g>
            <g id="Group-20-Copy-4" transform="translate(151.143477, 74.006915)">
                <path d="M0,9.05827384e-13 L0,63.6010346 C0.425572161,64.8323017 1.31022207,65.4479352 2.65394974,65.4479352 C3.9976774,65.4479352 4.88232731,65.0352167 5.30789947,64.2097796 L5.30789947,1.60475722 L0,9.05827384e-13 Z" id="Path-Copy-13" transform="translate(2.653950, 32.723968) scale(-1, 1) translate(-2.653950, -32.723968) "></path>
            </g>
            <g id="Group-20-Copy" transform="translate(140.301777, 77.113667)">
                <path d="M0,9.05827384e-13 L0,63.6010346 C0.425572161,64.8323017 1.31022207,65.4479352 2.65394974,65.4479352 C3.9976774,65.4479352 4.88232731,65.0352167 5.30789947,64.2097796 L5.30789947,1.60475722 L0,9.05827384e-13 Z" id="Path-Copy-13" transform="translate(2.653950, 32.723968) scale(-1, 1) translate(-2.653950, -32.723968) "></path>
            </g>
            <g id="Group-20-Copy-2" transform="translate(117.199004, 83.945125)">
                <path d="M0,9.05827384e-13 L0,63.6010346 C0.425572161,64.8323017 1.31022207,65.4479352 2.65394974,65.4479352 C3.9976774,65.4479352 4.88232731,65.0352167 5.30789947,64.2097796 L5.30789947,1.60475722 L0,9.05827384e-13 Z" id="Path-Copy-13" transform="translate(2.653950, 32.723968) scale(-1, 1) translate(-2.653950, -32.723968) "></path>
            </g>
            <g id="Group-20-Copy-5" transform="translate(105.702598, 86.572609)">
                <path d="M0.635484102,0.406090715 L0.635484102,64.0071254 C1.06105626,65.2383924 1.94570618,65.8540259 3.28943384,65.8540259 C4.6331615,65.8540259 5.51781141,65.4413074 5.94338358,64.6158703 L5.94338358,2.01084793 L0.635484102,0.406090715 Z" id="Path-Copy-13" transform="translate(3.289434, 33.130058) scale(-1, 1) translate(-3.289434, -33.130058) "></path>
            </g>
        </g>
    </g>
</svg>