<?xml version="1.0" encoding="UTF-8"?>
<svg width="200px" height="190px" viewBox="0 0 200 190" version="1.1" xmlns="http://www.w3.org/2000/svg" xmlns:xlink="http://www.w3.org/1999/xlink">
    <!-- Generator: Sketch 60.1 (88133) - https://sketch.com -->
    <title>Artboard</title>
    <desc>Created with Sketch.</desc>
    <g id="Artboard" stroke="none" stroke-width="1" fill="none" fill-rule="evenodd">
        <g id="Group-5" transform="translate(22.000000, -7.000000)" fill="#FFFFFF" stroke="#AFB7C4">
            <g id="Group-4">
                <g id="Group-2-Copy-2" transform="translate(0.000000, 81.105234)" stroke-linecap="round" stroke-linejoin="round">
                    <polygon id="Rectangle-Copy" transform="translate(41.901545, 41.474406) rotate(45.000000) translate(-41.901545, -41.474406) " points="33.3430287 32.9158889 71.1221494 12.2538017 50.4600622 50.0329224 12.6809414 70.6950096"></polygon>
                </g>
                <g id="Group-2-Copy" transform="translate(3.211823, 80.302279)" stroke-linecap="round" stroke-linejoin="round">
                    <polygon id="Rectangle-Copy" transform="translate(38.678771, 38.402227) rotate(45.000000) translate(-38.678771, -38.402227) " points="30.7542183 30.4776749 65.7348856 11.3461127 46.6033234 46.32678 11.622656 65.4583423"></polygon>
                </g>
                <g id="Group-2" transform="translate(6.423645, 79.499323)" stroke-linecap="round" stroke-linejoin="round">
                    <polygon id="Rectangle-Copy" transform="translate(35.455996, 35.330049) rotate(45.000000) translate(-35.455996, -35.330049) " points="28.1654079 28.0394609 60.3476219 10.4384236 42.7465846 42.6206376 10.5643707 60.2216749"></polygon>
                </g>
                <g id="Group-3" transform="translate(0.123964, 49.783251)">
                    <polygon id="Rectangle-Copy" stroke-linecap="round" stroke-linejoin="round" transform="translate(31.602605, 45.641827) rotate(45.000000) translate(-31.602605, -45.641827) " points="7.19790452 35.7808194 25.8621481 25.5117808 56.007306 55.5028339 37.3430624 65.7718725"></polygon>
                    <path d="M26.971625,55.9909218 C28.6063463,55.0822426 30.6457629,55.3702893 31.9648759,56.6961675 L38.6614446,63.4270802 L38.6614446,63.4270802 L33.1346798,66.4991979 L26.4381111,59.7682852 C25.506472,58.8318681 25.5103454,57.3175095 26.4467624,56.3858705 C26.60272,56.2307086 26.7793395,56.097806 26.971625,55.9909218 Z" id="Rectangle-Copy-4" stroke-linecap="round" stroke-linejoin="round" transform="translate(31.434844, 60.477030) rotate(45.000000) translate(-31.434844, -60.477030) "></path>
                    <polygon id="Rectangle-Copy-2" stroke-linecap="round" stroke-linejoin="round" transform="translate(52.201026, 45.542808) scale(-1, 1) rotate(45.000000) translate(-52.201026, -45.542808) " points="27.923186 35.4149071 46.3337077 25.6796565 76.4788656 55.6707095 58.0683438 65.4059601"></polygon>
                    <polygon id="Rectangle-Copy-3" stroke-linecap="round" stroke-linejoin="round" transform="translate(53.398534, 59.820197) scale(-1, 1) rotate(45.000000) translate(-53.398534, -59.820197) " points="48.864688 58.0570139 52.5181018 56.0893064 57.9323806 61.5833802 54.2789667 63.5510877"></polygon>
                    <line x1="54.2667809" y1="61.2859215" x2="52.6497385" y2="61.7684959" id="Path-Copy-8"></line>
                    <polygon id="Rectangle-Copy-5" stroke-linecap="round" stroke-linejoin="round" transform="translate(54.501540, 57.391068) scale(-1, 1) rotate(45.000000) translate(-54.501540, -57.391068) " points="52.4652897 56.5655959 56.1187035 54.5978884 56.5377899 58.2165405 52.8843761 60.184248"></polygon>
                    <polygon id="Rectangle-Copy" stroke-linecap="round" stroke-linejoin="round" transform="translate(41.766629, 21.214276) rotate(45.000000) translate(-41.766629, -21.214276) " points="37.5333842 16.9810307 56.219831 6.76107353 45.9998739 25.4475203 27.3134271 35.6674775"></polygon>
                </g>
                <g id="Group-3-Copy" transform="translate(11.365344, 24.490148)" stroke-linecap="round" stroke-linejoin="round">
                    <polygon id="Rectangle-Copy" transform="translate(23.094212, 32.937401) rotate(45.000000) translate(-23.094212, -32.937401) " points="5.41625443 25.8875273 19.0172283 18.3449488 40.7721686 39.9872741 27.1711948 47.5298526"></polygon>
                    <polygon id="Rectangle-Copy-2" transform="translate(38.146903, 32.865944) scale(-1, 1) rotate(45.000000) translate(-38.146903, -32.865944) " points="20.5622909 25.6216714 33.9765756 18.4678916 55.731516 40.1102169 42.3172313 47.2639966"></polygon>
                    <polygon id="Rectangle-Copy" transform="translate(30.521767, 15.309271) rotate(45.000000) translate(-30.521767, -15.309271) " points="27.4668484 12.254352 41.0837227 4.74731569 33.5766863 18.3641899 19.9598121 25.8712263"></polygon>
                </g>
                <g id="Group-3-Copy-2" transform="translate(16.183078, 0.401478)">
                    <polygon id="Rectangle-Copy" stroke-linecap="round" stroke-linejoin="round" transform="translate(19.447757, 27.290989) rotate(45.000000) translate(-19.447757, -27.290989) " points="4.72838755 21.5215848 16.1408425 15.1289431 34.1671266 33.0603934 22.7546716 39.4530352"></polygon>
                    <polygon id="Rectangle-Copy-2" stroke-linecap="round" stroke-linejoin="round" transform="translate(32.123708, 27.231782) scale(-1, 1) rotate(45.000000) translate(-32.123708, -27.231782) " points="17.4836284 21.2993571 28.7375038 15.2327572 46.7637879 33.1642075 35.5099125 39.2308074"></polygon>
                    <polygon id="Rectangle-Copy" stroke-linecap="round" stroke-linejoin="round" transform="translate(25.702541, 12.684825) rotate(45.000000) translate(-25.702541, -12.684825) " points="23.1713224 10.153606 34.5968191 3.79054639 28.2337595 15.2160431 16.8082628 21.5791027"></polygon>
                    <line x1="15.6576355" y1="18.0665025" x2="15.6576355" y2="22.8842365" id="Path"></line>
                    <line x1="18.8694581" y1="19.270936" x2="18.8694581" y2="24.08867" id="Path-Copy"></line>
                    <line x1="15.6576355" y1="26.0960591" x2="15.6576355" y2="30.9137931" id="Path-Copy-3"></line>
                    <line x1="14.0517241" y1="44.5640394" x2="14.0517241" y2="49.3817734" id="Path-Copy-7"></line>
                    <line x1="17.2635468" y1="45.7684729" x2="17.2635468" y2="50.5862069" id="Path-Copy-6"></line>
                    <line x1="14.0517241" y1="52.5935961" x2="14.0517241" y2="57.41133" id="Path-Copy-5"></line>
                    <line x1="17.2635468" y1="53.7980296" x2="17.2635468" y2="58.6157635" id="Path-Copy-4"></line>
                    <line x1="9.23399015" y1="76.682266" x2="9.23399015" y2="81.5" id="Path-Copy-11"></line>
                    <line x1="12.4458128" y1="77.8866995" x2="12.4458128" y2="82.7044335" id="Path-Copy-10"></line>
                    <line x1="9.23399015" y1="84.7118227" x2="9.23399015" y2="89.5295567" id="Path-Copy-9"></line>
                    <line x1="9.23399015" y1="92.7413793" x2="9.23399015" y2="97.5591133" id="Path-Copy-12"></line>
                    <line x1="12.4458128" y1="85.9162562" x2="12.4458128" y2="90.7339901" id="Path-Copy-8"></line>
                </g>
            </g>
            <g id="Group-4" transform="translate(126.465517, 134.896552) scale(-1, 1) translate(-126.465517, -134.896552) translate(89.931034, 73.871921)">
                <g id="Group-2-Copy" transform="translate(0.802956, 49.789963)" stroke-linecap="round" stroke-linejoin="round">
                    <polygon id="Rectangle-Copy" transform="translate(35.466948, 35.586319) rotate(45.000000) translate(-35.466948, -35.586319) " points="28.1763598 28.2957302 60.3585738 10.6946929 42.7575365 42.8769069 10.5753226 60.4779441"></polygon>
                </g>
                <g id="Group-2" transform="translate(3.211823, 48.987008)" stroke-linecap="round" stroke-linejoin="round">
                    <polygon id="Rectangle-Copy" transform="translate(33.058081, 33.177452) rotate(45.000000) translate(-33.058081, -33.177452) " points="26.2378534 26.3572237 56.3437955 9.89173723 39.878309 39.9976793 9.7723669 56.4631658"></polygon>
                </g>
                <g id="Group-3" transform="translate(0.123964, 27.300493)">
                    <polygon id="Rectangle-Copy" stroke-linecap="round" stroke-linejoin="round" transform="translate(26.413877, 39.855685) rotate(45.000000) translate(-26.413877, -39.855685) " points="5.76574772 33.1323684 23.6357681 23.3003101 47.0620059 46.5790008 29.1919855 56.411059"></polygon>
                    <line x1="20.3728645" y1="26.1387695" x2="20.3728645" y2="30.7514936" id="Path-Copy-9"></line>
                    <line x1="20.3728645" y1="33.8266429" x2="20.3728645" y2="38.4393669" id="Path-Copy-12"></line>
                    <line x1="23.4480138" y1="27.2919505" x2="23.4480138" y2="31.9046746" id="Path-Copy-8"></line>
                    <polygon id="Rectangle-Copy-4" stroke-linecap="round" stroke-linejoin="round" transform="translate(25.837369, 51.672202) rotate(45.000000) translate(-25.837369, -51.672202) " points="20.3792336 49.9109819 25.1907227 47.2915087 31.2955043 53.433423 26.4840151 56.0528962"></polygon>
                    <polygon id="Rectangle-Copy-2" stroke-linecap="round" stroke-linejoin="round" transform="translate(46.135769, 39.760880) scale(-1, 1) rotate(45.000000) translate(-46.135769, -39.760880) " points="25.6091023 32.7820268 43.2361976 23.4610421 66.6624354 46.7397328 49.0353401 56.0607174"></polygon>
                    <polygon id="Rectangle-Copy" stroke-linecap="round" stroke-linejoin="round" transform="translate(36.145389, 20.311540) rotate(45.000000) translate(-36.145389, -20.311540) " points="32.0922822 16.2584336 49.9835611 6.47336828 40.1984958 24.3646471 22.3072169 34.1497125"></polygon>
                    <line x1="25.6541856" y1="47.3743842" x2="25.6541856" y2="55.9699225" id="Path-Copy-13"></line>
                </g>
                <g id="Group-3-Copy-2" transform="translate(6.547610, 0.401478)">
                    <polygon id="Rectangle-Copy" stroke-linecap="round" stroke-linejoin="round" transform="translate(23.462535, 31.305767) rotate(45.000000) translate(-23.462535, -31.305767) " points="5.90428889 22.6974862 17.3167439 16.3048445 41.0207819 39.9140487 29.6083269 46.3066905"></polygon>
                    <line x1="19.6724138" y1="34.1256158" x2="19.6724138" y2="38.9433498" id="Path"></line>
                    <line x1="23.6871921" y1="35.3300493" x2="23.6871921" y2="40.1477833" id="Path-Copy"></line>
                    <polygon id="Rectangle-Copy-2" stroke-linecap="round" stroke-linejoin="round" transform="translate(36.138486, 31.246561) scale(-1, 1) rotate(45.000000) translate(-36.138486, -31.246561) " points="18.6595298 22.4752584 29.9134052 16.4086585 53.6174432 40.0178628 42.3635678 46.0844627"></polygon>
                    <polygon id="Rectangle-Copy" stroke-linecap="round" stroke-linejoin="round" transform="translate(29.717319, 12.684825) rotate(45.000000) translate(-29.717319, -12.684825) " points="27.1861007 10.153606 38.6115974 3.79054639 32.2485378 15.2160431 20.8230411 21.5791027"></polygon>
                    <polygon id="Rectangle-Copy-6" stroke-linecap="round" stroke-linejoin="round" transform="translate(29.717319, 12.684825) rotate(45.000000) translate(-29.717319, -12.684825) " points="22.2452413 4.83154 38.6115974 3.79054639 32.2485378 15.2160431 20.8230411 21.5791027"></polygon>
                    <line x1="29.986873" y1="1.84815674" x2="29.7861341" y2="16.0886678" id="Path-Copy-2"></line>
                </g>
            </g>
            <g id="Group-4-Copy" transform="translate(0.000000, 38.541872)">
                <g id="Group-2-Copy-2" transform="translate(1.605911, 66.652032)" stroke-linecap="round" stroke-linejoin="round">
                    <polygon id="Rectangle-Copy-7" transform="translate(70.004994, 69.979332) rotate(45.000000) translate(-70.004994, -69.979332) " points="39.5235686 71.5329942 123.803023 25.8167702 100.486419 68.4256693 16.2069641 114.141893"></polygon>
                    <polygon id="Rectangle-Copy-9" transform="translate(70.004994, 65.161598) rotate(45.000000) translate(-70.004994, -65.161598) " points="42.9937766 66.5391504 117.678298 26.0049244 97.0162108 63.7840451 22.3316893 104.318271"></polygon>
                </g>
                <g id="Group-3" transform="translate(0.123964, 31.315271)">
                    <polygon id="Rectangle-Copy" stroke-linecap="round" stroke-linejoin="round" transform="translate(60.509009, 74.146753) rotate(45.000000) translate(-60.509009, -74.146753) " points="11.4060787 69.1118364 68.1112738 37.8351082 109.61194 79.1816691 52.9067445 110.458397"></polygon>
                    <polygon id="Rectangle-Copy-2" stroke-linecap="round" stroke-linejoin="round" transform="translate(101.984277, 80.069902) scale(-1, 1) rotate(45.000000) translate(-101.984277, -80.069902) " points="72.0286832 64.2642467 90.439205 54.5289961 131.939871 95.8755571 113.529349 105.610808"></polygon>
                    <line x1="107.070617" y1="55.4039409" x2="107.070617" y2="60.2216749" id="Path-Copy-21"></line>
                    <line x1="107.070617" y1="63.4334975" x2="107.070617" y2="68.2512315" id="Path-Copy-22"></line>
                    <line x1="107.070617" y1="71.4630542" x2="107.070617" y2="76.2807882" id="Path-Copy-24"></line>
                    <line x1="107.070617" y1="79.4926108" x2="107.070617" y2="84.3103448" id="Path-Copy-25"></line>
                    <line x1="103.055839" y1="56.6083744" x2="103.055839" y2="61.4261084" id="Path-Copy-20"></line>
                    <line x1="99.0410602" y1="58.2142857" x2="99.0410602" y2="63.0320197" id="Path-Copy-23"></line>
                    <polygon id="Rectangle-Copy" stroke-linecap="round" stroke-linejoin="round" transform="translate(70.669006, 41.788663) rotate(45.000000) translate(-70.669006, -41.788663) " points="47.4824545 48.1321273 104.075515 16.7587525 93.8555576 35.4451993 37.2624974 66.8185741"></polygon>
                </g>
                <g id="Group-3-Copy-3" transform="translate(17.788989, 0.000000)">
                    <polygon id="Rectangle-Copy" stroke-linecap="round" stroke-linejoin="round" transform="translate(46.104595, 55.297886) rotate(45.000000) translate(-46.104595, -55.297886) " points="8.14218985 55.409244 56.9425087 28.1971178 84.0669994 55.186529 35.2666806 82.3986552"></polygon>
                    <line x1="24.3661833" y1="36.1330049" x2="24.3661833" y2="40.9507389" id="Path"></line>
                    <line x1="27.578006" y1="37.3374384" x2="27.578006" y2="42.1551724" id="Path-Copy"></line>
                    <line x1="24.3661833" y1="44.1625616" x2="24.3661833" y2="48.9802956" id="Path-Copy-3"></line>
                    <polygon id="Rectangle-Copy-2" stroke-linecap="round" stroke-linejoin="round" transform="translate(80.060505, 61.044912) scale(-1, 1) rotate(45.000000) translate(-80.060505, -61.044912) " points="60.4166646 50.9652277 72.5798547 44.1351861 99.7043454 71.1245973 87.5411554 77.9546389"></polygon>
                    <line x1="82.9819469" y1="46.5714286" x2="82.9819469" y2="51.3891626" id="Path"></line>
                    <line x1="78.9671686" y1="47.7758621" x2="78.9671686" y2="52.5935961" id="Path-Copy"></line>
                    <line x1="82.9819469" y1="54.6009852" x2="82.9819469" y2="59.4187192" id="Path-Copy-21"></line>
                    <line x1="82.9819469" y1="62.6305419" x2="82.9819469" y2="67.4482759" id="Path-Copy-22"></line>
                    <line x1="78.9671686" y1="55.8054187" x2="78.9671686" y2="60.6231527" id="Path-Copy-20"></line>
                    <polygon id="Rectangle-Copy" stroke-linecap="round" stroke-linejoin="round" transform="translate(53.002882, 34.280180) rotate(45.000000) translate(-53.002882, -34.280180) " points="32.2793218 41.7260757 80.9813495 14.4292346 73.7264417 26.8342849 25.0244139 54.131126"></polygon>
                </g>
            </g>
        </g>
    </g>
</svg>