<?xml version="1.0" encoding="UTF-8"?>
<svg width="200px" height="190px" viewBox="0 0 200 190" version="1.1" xmlns="http://www.w3.org/2000/svg" xmlns:xlink="http://www.w3.org/1999/xlink">
    <!-- Generator: Sketch 60.1 (88133) - https://sketch.com -->
    <title>Artboard</title>
    <desc>Created with Sketch.</desc>
    <g id="Artboard" stroke="none" stroke-width="1" fill="none" fill-rule="evenodd">
        <g id="Group-14" transform="translate(4.000000, 0.000000)" stroke="#AFB7C4">
            <g id="Group-10" fill="#FFFFFF">
                <g id="Group-4" transform="translate(95.041680, 112.022855) scale(-1, 1) translate(-95.041680, -112.022855) translate(0.069304, 0.694125)">
                    <g id="Group-2" transform="translate(0.823460, 0.275035)">
                        <polygon id="Rectangle-Copy-17" stroke-linecap="round" stroke-linejoin="round" transform="translate(94.439405, 126.883583) rotate(45.000000) translate(-94.439405, -126.883583) " points="91.1404896 91.9519701 156.649958 56.1236524 97.7383196 161.815196 32.2288516 197.643514"></polygon>
                        <polygon id="Rectangle-Copy-8" stroke-linecap="round" stroke-linejoin="round" transform="translate(94.967029, 120.572149) rotate(45.000000) translate(-94.967029, -120.572149) " points="91.8639668 87.7143862 153.484212 54.0131551 98.070091 153.429912 36.4498461 187.131143"></polygon>
                        <polygon id="Rectangle-Copy" stroke-linecap="round" stroke-linejoin="round" transform="translate(94.967029, 114.715829) rotate(45.000000) translate(-94.967029, -114.715829) " points="92.0877986 84.2281813 149.263217 52.9579065 97.8462592 145.203478 40.6708405 176.473752"></polygon>
                        <g id="Group-19" transform="translate(15.271622, 39.500168)">
                            <polygon id="Rectangle-Copy-11" stroke-linecap="round" stroke-linejoin="round" transform="translate(98.457303, 58.966499) rotate(45.000000) translate(-98.457303, -58.966499) " points="102.96226 10.0606936 131.852193 38.9506268 93.9523462 107.872303 65.0624131 78.9823703"></polygon>
                            <polygon id="Rectangle-Copy-12" stroke-linecap="round" stroke-linejoin="round" transform="translate(40.884559, 64.197022) rotate(45.000000) translate(-40.884559, -64.197022) " points="8.37797739 59.6998332 37.2679105 88.5897663 73.3911414 68.6942109 44.5012083 39.8042777"></polygon>
                            <g id="Group-18" transform="translate(48.802708, 70.424515) scale(-1, 1) translate(-48.802708, -70.424515) translate(37.722598, 58.816780)">
                                <polygon id="Rectangle-Copy-3" stroke-linecap="round" stroke-linejoin="round" transform="translate(11.409757, 11.606358) scale(-1, 1) rotate(45.000000) translate(-11.409757, -11.606358) " points="3.16574586 8.40031576 9.80884385 4.82238171 19.6537685 14.8123997 13.0106705 18.3903338"></polygon>
                                <line x1="13.0832141" y1="14.3181759" x2="10.1429036" y2="15.1956536" id="Path-Copy-8"></line>
                                <polygon id="Rectangle-Copy-5" stroke-linecap="round" stroke-linejoin="round" transform="translate(13.415381, 7.189409) scale(-1, 1) rotate(45.000000) translate(-13.415381, -7.189409) " points="9.71281413 5.68843129 16.3559121 2.11049724 17.1179479 8.69038716 10.4748499 12.2683212"></polygon>
                            </g>
                        </g>
                        <polygon id="Rectangle-Copy-4" stroke-linecap="round" stroke-linejoin="round" transform="translate(117.939405, 109.326230) scale(-1, 1) rotate(45.000000) translate(-117.939405, -109.326230) " points="107.573638 105.981424 116.711333 101.006676 128.305172 112.671035 119.167477 117.645784"></polygon>
                        <line x1="117.833339" y1="101.006676" x2="117.833339" y2="117.330812" id="Path-Copy-13" transform="translate(117.833339, 109.168744) scale(-1, 1) translate(-117.833339, -109.168744) "></line>
                        <g id="Group-19-Copy-2" transform="translate(26.879357, 0.455969)" stroke-linecap="round" stroke-linejoin="round">
                            <polygon id="Rectangle-Copy-11" transform="translate(90.714202, 75.146056) rotate(45.000000) translate(-90.714202, -75.146056) " points="110.763989 34.2224958 113.930611 37.3891173 70.6644141 116.069615 67.4977926 112.902994"></polygon>
                            <polygon id="Rectangle-Copy-13" transform="translate(68.104233, 66.357198) rotate(45.000000) translate(-68.104233, -66.357198) " points="110.356343 15.6606366 69.1183187 38.3732618 25.852122 117.05376 67.0901466 94.3411347"></polygon>
                            <polygon id="Rectangle-Copy-12" transform="translate(24.989565, 81.117184) rotate(45.000000) translate(-24.989565, -81.117184) " points="2.78724215 90.890186 5.95386367 94.0568075 47.1918883 71.3441823 44.0252668 68.1775608"></polygon>
                        </g>
                        <g id="Group-19-Copy-3" transform="translate(33.738473, 5.732213)" stroke-linecap="round" stroke-linejoin="round">
                            <polygon id="Rectangle-Copy-11" transform="translate(79.112519, 58.997116) rotate(45.000000) translate(-79.112519, -58.997116) " points="93.6174883 22.4546311 100.758512 29.595655 64.6075505 95.5396005 57.4665266 88.3985766"></polygon>
                            <polygon id="Rectangle-Copy-13" transform="translate(80.602526, 35.124108) rotate(45.000000) translate(-80.602526, -35.124108) " points="110.934667 16.515983 76.3721977 35.4935926 50.2703858 53.7322328 84.8328552 34.7546232"></polygon>
                            <polygon id="Rectangle-Copy-14" transform="translate(44.506526, 45.657518) rotate(45.000000) translate(-44.506526, -45.657518) " points="66.8123354 12.3160608 32.2498661 31.2936704 22.2007162 78.9989758 56.7631855 60.0213662"></polygon>
                            <polygon id="Rectangle-Copy-6" transform="translate(78.971088, 54.304975) rotate(45.000000) translate(-78.971088, -54.304975) " points="70.7920968 39.2189676 97.1045751 21.5387525 60.8376003 87.071197"></polygon>
                            <polygon id="Rectangle-Copy-12" transform="translate(24.087242, 64.020446) rotate(45.000000) translate(-24.087242, -64.020446) " points="3.23549568 69.938739 10.3765196 77.0797629 44.938989 58.1021533 37.797965 50.9611294"></polygon>
                        </g>
                        <g id="Group-20" transform="translate(149.433249, 67.140792)">
                            <path d="M9.09494702e-13,5.18696197e-13 L9.09494702e-13,43.8585287 C0.427648123,45.0947806 1.3166134,45.7129066 2.66689583,45.7129066 C4.01717827,45.7129066 4.90614354,45.2985171 5.33379167,44.4697382 L5.33379167,1.61125421 L9.09494702e-13,5.18696197e-13 Z" id="Path-Copy-13" transform="translate(2.666896, 22.856453) scale(-1, 1) translate(-2.666896, -22.856453) "></path>
                        </g>
                        <g id="Group-20-Copy-4" transform="translate(138.880762, 70.306538)">
                            <path d="M9.09494702e-13,5.18696197e-13 L9.09494702e-13,43.8585287 C0.427648123,45.0947806 1.3166134,45.7129066 2.66689583,45.7129066 C4.01717827,45.7129066 4.90614354,45.2985171 5.33379167,44.4697382 L5.33379167,1.61125421 L9.09494702e-13,5.18696197e-13 Z" id="Path-Copy-13" transform="translate(2.666896, 22.856453) scale(-1, 1) translate(-2.666896, -22.856453) "></path>
                        </g>
                        <g id="Group-20-Copy" transform="translate(127.986176, 73.425868)">
                            <path d="M9.09494702e-13,5.18696197e-13 L9.09494702e-13,43.8585287 C0.427648123,45.0947806 1.3166134,45.7129066 2.66689583,45.7129066 C4.01717827,45.7129066 4.90614354,45.2985171 5.33379167,44.4697382 L5.33379167,1.61125421 L9.09494702e-13,5.18696197e-13 Z" id="Path-Copy-13" transform="translate(2.666896, 22.856453) scale(-1, 1) translate(-2.666896, -22.856453) "></path>
                        </g>
                        <g id="Group-20-Copy-2" transform="translate(104.770706, 80.284984)">
                            <path d="M9.09494702e-13,5.18696197e-13 L9.09494702e-13,43.8585287 C0.427648123,45.0947806 1.3166134,45.7129066 2.66689583,45.7129066 C4.01717827,45.7129066 4.90614354,45.2985171 5.33379167,44.4697382 L5.33379167,1.61125421 L9.09494702e-13,5.18696197e-13 Z" id="Path-Copy-13" transform="translate(2.666896, 22.856453) scale(-1, 1) translate(-2.666896, -22.856453) "></path>
                        </g>
                        <g id="Group-20-Copy-5" transform="translate(94.218220, 82.923105)">
                            <path d="M9.09494702e-13,5.18696197e-13 L9.09494702e-13,43.8585287 C0.427648123,45.0947806 1.3166134,45.7129066 2.66689583,45.7129066 C4.01717827,45.7129066 4.90614354,45.2985171 5.33379167,44.4697382 L5.33379167,1.61125421 L9.09494702e-13,5.18696197e-13 Z" id="Path-Copy-13" transform="translate(2.666896, 22.856453) scale(-1, 1) translate(-2.666896, -22.856453) "></path>
                        </g>
                        <g id="Group-20-Copy-3" transform="translate(82.610485, 86.616476)">
                            <path d="M9.09494702e-13,5.18696197e-13 L9.09494702e-13,43.8585287 C0.427648123,45.0947806 1.3166134,45.7129066 2.66689583,45.7129066 C4.01717827,45.7129066 4.90614354,45.2985171 5.33379167,44.4697382 L5.33379167,1.61125421 L9.09494702e-13,5.18696197e-13 Z" id="Path-Copy-13" transform="translate(2.666896, 22.856453) scale(-1, 1) translate(-2.666896, -22.856453) "></path>
                        </g>
                    </g>
                </g>
            </g>
            <g id="Group-21" transform="translate(160.497261, 65.552264) rotate(6.000000) translate(-160.497261, -65.552264) translate(133.997261, 32.052264)">
                <path d="M6.66355599,62.0924484 L11.3685093,61.8479823 C22.1380619,61.8479823 30.8685093,48.4165248 30.8685093,31.8479823 C30.8685093,15.2794398 22.1377238,1.95723699 11.3685093,1.84798229 C8.63628109,1.82026358 6.5077255,1.93596537 4.9828425,2.19508766" id="Oval-Copy-3" fill="#FFFFFF" transform="translate(17.925676, 31.968206) scale(-1, 1) rotate(-8.000000) translate(-17.925676, -31.968206) "></path>
                <ellipse id="Oval" fill="#FFFFFF" transform="translate(29.441239, 33.866262) rotate(8.000000) translate(-29.441239, -33.866262) " cx="29.4412387" cy="33.866262" rx="19.5" ry="30"></ellipse>
                <polyline id="Path-15" stroke-linecap="round" stroke-linejoin="round" points="37.9467168 23.9707904 27.1011252 44.9707904 21.9467168 38.3246396"></polyline>
            </g>
        </g>
    </g>
</svg>