<?xml version="1.0" encoding="UTF-8"?>
<svg width="200px" height="190px" viewBox="0 0 200 190" version="1.1" xmlns="http://www.w3.org/2000/svg" xmlns:xlink="http://www.w3.org/1999/xlink">
    <!-- Generator: Sketch 60.1 (88133) - https://sketch.com -->
    <title>Artboard</title>
    <desc>Created with Sketch.</desc>
    <g id="Artboard" stroke="none" stroke-width="1" fill="none" fill-rule="evenodd">
        <g id="Group-13" transform="translate(101.000000, 98.000000) scale(-1, 1) rotate(10.000000) translate(-101.000000, -98.000000) translate(19.000000, 18.000000)">
            <path d="M88.403593,14.1380379 C91.7627158,12.5830052 93.5826829,13.468696 93.8634942,16.7951103 L124.513968,62.8111494 L81.8621493,140.582267 L38.5139684,97.3533853 L79.1468343,23.2636167 C81.9588839,18.7349303 85.0444701,15.6930707 88.403593,14.1380379 Z" id="Rectangle-Copy-57" stroke="#AFB7C4" fill="#FFFFFF" stroke-linejoin="round" transform="translate(81.513968, 76.988624) rotate(35.000000) translate(-81.513968, -76.988624) "></path>
            <g id="Group-6-Copy-3" transform="translate(9.885442, 103.921173) rotate(-10.000000) translate(-9.885442, -103.921173) translate(1.885442, 96.421173)">
                <g id="Group-10" transform="translate(0.952681, 0.916115)"></g>
            </g>
            <polyline id="Rectangle-Copy-72" stroke="#AFB7C4" fill="#FFFFFF" stroke-linejoin="round" transform="translate(73.943966, 42.093218) rotate(45.000000) translate(-73.943966, -42.093218) " points="93.4439659 12.4776356 78.7029988 2.0932176 54.4439659 71.4387286 69.8316153 82.0932176"></polyline>
            <polyline id="Rectangle-Copy-73" stroke="#AFB7C4" fill="#FFFFFF" stroke-linejoin="round" transform="translate(74.879745, 48.099832) rotate(45.000000) translate(-74.879745, -48.099832) " points="94.879745 17.7248762 79.7608044 7.07419106 54.879745 78.197792 70.6619496 89.1254731"></polyline>
            <polyline id="Rectangle-Copy-71" stroke="#AFB7C4" fill="#FFFFFF" stroke-linejoin="round" transform="translate(76.515034, 55.658065) rotate(45.000000) translate(-76.515034, -55.658065) " points="97.1666497 24.3166973 81.5551219 13.3271491 55.8634177 86.7136238 72.1598191 97.9889808"></polyline>
            <polyline id="Rectangle-Copy-69" stroke="#AFB7C4" fill="#FFFFFF" stroke-linejoin="round" transform="translate(77.301317, 59.403991) rotate(45.000000) translate(-77.301317, -59.403991) " points="95.1627698 24.1450307 85.9759705 17.4113154 59.4398651 94.3632564 69.3340476 101.396667"></polyline>
            <line x1="90.9482886" y1="24.8797187" x2="62.3933856" y2="107.685962" id="Rectangle-Copy-64" stroke="#AFB7C4" stroke-linejoin="round" transform="translate(76.670837, 66.282841) rotate(45.000000) translate(-76.670837, -66.282841) "></line>
            <line x1="53.5090363" y1="54.5617906" x2="48.3208677" y2="69.6069391" id="Rectangle-Copy-65" stroke="#AFB7C4" stroke-linejoin="round" transform="translate(50.914952, 62.084365) rotate(45.000000) translate(-50.914952, -62.084365) "></line>
            <line x1="53.8073218" y1="45.4974956" x2="48.6191531" y2="60.5426441" id="Rectangle-Copy-74" stroke="#AFB7C4" stroke-linejoin="round" transform="translate(51.213237, 53.020070) rotate(45.000000) translate(-51.213237, -53.020070) "></line>
            <line x1="54.1934263" y1="38.436977" x2="49.0052576" y2="53.4821255" id="Rectangle-Copy-75" stroke="#AFB7C4" stroke-linejoin="round" transform="translate(51.599342, 45.959551) rotate(45.000000) translate(-51.599342, -45.959551) "></line>
            <polyline id="Rectangle-Copy-70" stroke="#AFB7C4" stroke-linejoin="round" transform="translate(81.249086, 72.614679) rotate(45.000000) translate(-81.249086, -72.614679) " points="98.291386 37.876913 90.7428908 32.2903506 64.2067854 109.242292 69.3916813 112.939007"></polyline>
            <line x1="92.9482886" y1="34.8797187" x2="64.3933856" y2="117.685962" id="Rectangle-Copy-68" stroke="#AFB7C4" stroke-linejoin="round" transform="translate(78.670837, 76.282841) rotate(45.000000) translate(-78.670837, -76.282841) "></line>
            <path d="M91.0940156,21.4977456 L132.293776,62.2729229 C134.506903,64.463242 135.00719,67.8521112 133.521375,70.5884923 L92.8838515,145.429426 L92.8838515,145.429426 L49.5356707,102.200544 L91.8564506,25.750738 C92.1962512,24.3903007 92.2386919,23.3962048 91.9837726,22.7684502 C91.7288533,22.1406957 91.4322676,21.7171274 91.0940156,21.4977456 Z" id="Rectangle-Copy-67" stroke="#AFB7C4" fill="#FFFFFF" stroke-linejoin="round" transform="translate(92.782445, 83.463586) rotate(35.000000) translate(-92.782445, -83.463586) "></path>
            <ellipse id="Oval" stroke="#AFB7C4" transform="translate(96.739528, 83.522788) rotate(10.000000) translate(-96.739528, -83.522788) " cx="96.7395277" cy="83.5227884" rx="10" ry="13.5"></ellipse>
            <g id="Group-12" transform="translate(96.739528, 83.022788) rotate(-8.000000) translate(-96.739528, -83.022788) translate(89.739528, 76.022788)" fill="#FFFFFF" stroke="#AFB7C4" stroke-linecap="round">
                <path d="M10.4968782,7.48747141 L9.49367205,10.4797579 C9.23772174,11.2431869 8.41135153,11.6545797 7.64792251,11.3986293 C7.42447672,11.323716 7.22252172,11.1957517 7.05935884,11.025699 C6.09235667,10.0178638 5.98144973,8.46379424 6.79553148,7.32885112 L6.80281269,7.31870011 C7.62111479,6.17787322 7.50963289,4.61574703 6.53761759,3.60268702 L6.49423929,3.55747701 C5.91869599,2.95763059 4.96585436,2.93792901 4.36600793,3.51347231 C4.19083298,3.68154995 4.05891137,3.88950471 3.98149572,4.11959855 L3,7.03678775 L3,7.03678775" id="Rectangle-Copy-66" stroke-linejoin="round" transform="translate(6.748439, 7.264476) rotate(45.000000) translate(-6.748439, -7.264476) "></path>
                <line x1="6.70958326" y1="1" x2="6.65327412" y2="12.7603431" id="Path-15"></line>
            </g>
            <path d="M52.6176937,93.0227884 L62.7395277,103.255999 L59.2615003,109.685294 C57.8636855,112.269219 54.6358473,113.230752 52.0519219,111.832937 C51.5848624,111.580274 51.1582689,111.259098 50.7863306,110.880093 C47.7862742,107.823033 47.1299125,103.167206 49.1678945,99.399902 L52.6176937,93.0227884 L52.6176937,93.0227884 Z" id="Rectangle-Copy-57" stroke="#AFB7C4" fill="#FFFFFF" stroke-linejoin="round" transform="translate(54.239528, 104.522788) rotate(35.000000) translate(-54.239528, -104.522788) "></path>
        </g>
    </g>
</svg>