<?xml version="1.0" encoding="UTF-8"?>
<svg width="136px" height="25px" viewBox="0 0 136 25" version="1.1" xmlns="http://www.w3.org/2000/svg" xmlns:xlink="http://www.w3.org/1999/xlink">
    <!-- Generator: Sketch 60.1 (88133) - https://sketch.com -->
    <title>Group 17 Copy</title>
    <desc>Created with Sketch.</desc>
    <g id="NEW" stroke="none" stroke-width="1" fill="none" fill-rule="evenodd">
        <g id="Contact-Us" transform="translate(-40.000000, -32.000000)" fill="#FFFFFF" fill-rule="nonzero">
            <g id="Group-17-Copy" transform="translate(40.000000, 32.000000)">
                <g id="Group-Copy-5" transform="translate(0.000000, 2.058400)">
                    <path d="M5.13643837,21.7529564 C3.39788263,21.9544679 1.68449021,22.223208 4.92249437e-06,22.5559942 L4.92249437e-06,10.655064 L5.13643837,10.655064 L5.13643837,21.7529564 L5.13643837,21.7529564 Z" id="Path"></path>
                    <path d="M25.6821672,22.5559952 C23.997682,22.2232088 22.2842895,21.9544686 20.5457338,21.7529569 L20.5457338,10.655064 L25.6821672,10.655064 L25.6821672,22.5559952 Z" id="Path"></path>
                    <path d="M15.4093003,21.3597916 C14.5581135,21.3267903 13.7020263,21.310128 12.8414453,21.310128 C11.9806118,21.310128 11.1242747,21.3268 10.2728409,21.3597916 L10.2728409,10.655064 L15.4093003,10.655064 L15.4093003,21.3597916 L15.4093003,21.3597916 Z" id="Path"></path>
                    <path d="M10.2728669,0.0489960814 L10.2728669,10.655064 L5.13643345,10.655064 L5.13643345,0.445208288 C6.8259592,0.248327397 8.53924899,0.115277835 10.2728669,0.0489960814 L10.2728669,0.0489960814 Z" id="Path"></path>
                    <path d="M20.5457338,0.444602062 L20.5457338,10.655064 L15.4093003,10.655064 L15.4093003,0.048929365 C17.1429183,0.115120865 18.856208,0.247989258 20.5457338,0.444602062 L20.5457338,0.444602062 Z" id="Path"></path>
                </g>
                <g id="Group-15-Copy-3" transform="translate(38.688810, 0.000000)">
                    <path d="M3.18203526,22 L3.18203526,16.0647619 C3.18203526,13.8352816 3.39293205,12.6301572 4.0256224,11.5455451 C4.59805653,10.4910612 5.62241234,9.85837086 6.70702437,9.85837086 C7.49035528,9.85837086 8.18330186,10.2199082 8.48458298,10.8224704 C8.81599221,11.4852889 8.93650466,12.2987479 8.93650466,13.8955379 L8.93650466,22 L11.979444,22 L11.979444,16.3057868 C11.979444,14.0160503 12.250597,12.5699009 12.8832873,11.4551608 C13.4557215,10.4609331 14.419821,9.85837086 15.4441768,9.85837086 C16.2275078,9.85837086 16.9505824,10.2500363 17.3121198,10.8827267 C17.6134009,11.4250327 17.7037852,12.057723 17.7037852,13.5641286 L17.7037852,22 L20.7467246,22 L20.7467246,13.2025913 C20.7467246,12.0878512 20.5659559,11.2743921 20.1742904,10.5814456 C19.511472,9.37632107 18.1557069,8.6833745 16.4685327,8.6833745 C14.148668,8.6833745 12.6723905,9.73785842 11.8890596,11.9974668 C11.4070098,9.73785842 10.0813729,8.6833745 7.73138018,8.6833745 C6.2852308,8.6833745 4.95959387,9.1955524 4.14613485,10.0993958 C3.60382883,10.6417018 3.30254771,11.1538797 2.91088226,12.2987479 L2.91088226,8.98465562 L0.139095952,8.98465562 L0.139095952,22 L3.18203526,22 Z M30.4781047,22.3314092 C33.5813003,22.3314092 35.5396276,20.915388 36.2627022,18.1737298 L34.8768091,18.1737298 C34.304375,20.1621852 32.8280975,21.3371815 30.8697702,21.3371815 C28.2787526,21.3371815 26.9832437,19.4089824 26.9531156,15.6128403 L36.5639834,15.6128403 C36.5037271,13.7448973 36.202446,12.5096447 35.5396276,11.3045202 C34.6357842,9.7077303 32.5870726,8.6833745 30.2370798,8.6833745 C26.2601691,8.6833745 23.7595358,11.3045202 23.7595358,15.4019435 C23.7595358,19.7102635 26.3204253,22.3314092 30.4781047,22.3314092 Z M33.3402754,14.6788688 L26.9531156,14.6788688 C26.9832437,13.7448973 27.1037562,12.9013102 27.3749092,12.057723 C27.8870871,10.4006769 28.7909305,9.61734597 30.2370798,9.61734597 C32.2255352,9.61734597 33.3101473,11.3949046 33.3402754,14.6788688 Z M43.2524242,22.3012811 C44.1261395,22.3012811 45.2107515,22.1205124 46.5665165,21.7891032 L46.5665165,20.7044912 C45.4216483,20.9756442 44.8492142,21.0660285 44.4274206,21.0660285 C43.2524242,21.0660285 42.8005025,20.3128257 42.8005025,18.2942422 L42.8005025,10.0391395 L46.6267728,10.0391395 L46.6267728,8.98465562 L42.8005025,8.98465562 L42.8005025,4.58595126 L39.7575632,5.30902595 L39.7575632,8.98465562 L37.5582111,8.98465562 L37.5582111,10.0391395 L39.7575632,10.0391395 L39.7575632,18.1134736 C39.7575632,19.3788543 39.8780757,20.0718008 40.2697411,20.7044912 C40.8421753,21.728847 41.9267873,22.3012811 43.2524242,22.3012811 Z M54.3094413,22.3314092 C57.4126369,22.3314092 59.3709641,20.915388 60.0940388,18.1737298 L58.7081457,18.1737298 C58.1357116,20.1621852 56.6594341,21.3371815 54.7011068,21.3371815 C52.1100892,21.3371815 50.8145803,19.4089824 50.7844522,15.6128403 L60.39532,15.6128403 C60.3350637,13.7448973 60.0337826,12.5096447 59.3709641,11.3045202 C58.4671208,9.7077303 56.4184092,8.6833745 54.0684164,8.6833745 C50.0915056,8.6833745 47.5908724,11.3045202 47.5908724,15.4019435 C47.5908724,19.7102635 50.1517619,22.3314092 54.3094413,22.3314092 Z M57.171612,14.6788688 L50.7844522,14.6788688 C50.8145803,13.7448973 50.9350928,12.9013102 51.2062458,12.057723 C51.7184237,10.4006769 52.6222671,9.61734597 54.0684164,9.61734597 C56.0568718,9.61734597 57.1414839,11.3949046 57.171612,14.6788688 Z M69.3433692,22.3012811 C71.3016965,22.3012811 72.9587427,21.6083345 73.8324579,20.4032101 C74.3446358,19.7102635 74.5856607,19.047445 74.7061732,17.962833 L73.3504081,17.962833 C73.0792551,20.0115446 71.693362,21.2769253 69.7350347,21.2769253 C68.469654,21.2769253 67.41517,20.6743631 66.8126078,19.589751 C66.2401737,18.5955233 66.0292769,17.4807832 66.0292769,15.552584 C66.0292769,11.5756732 67.1138889,9.64747408 69.3132411,9.64747408 C71.0305435,9.64747408 71.8741306,10.8827267 71.8440025,13.5038724 L74.9170699,13.5038724 C74.8568137,10.5814456 72.6875896,8.6833745 69.3433692,8.6833745 C65.3664584,8.6833745 62.7453127,11.3647765 62.7453127,15.4320716 C62.7453127,19.7403916 65.2158179,22.3012811 69.3433692,22.3012811 Z M80.7920518,22 L80.7920518,16.4564274 C80.7920518,14.196819 81.0632048,12.7506696 81.6958951,11.5756732 C82.2382012,10.5211893 83.3529413,9.85837086 84.4676814,9.85837086 C86.0945995,9.85837086 86.8176742,10.9429829 86.8176742,13.2628475 L86.8176742,22 L89.8606135,22 L89.8606135,13.5942568 C89.8606135,12.2686198 89.6798448,11.3949046 89.2580512,10.6417018 C88.5651047,9.40644918 87.1792115,8.6833745 85.4619091,8.6833745 C83.1420445,8.6833745 81.4548702,9.88849898 80.7920518,12.0878512 L80.7920518,0.699424816 L77.7491125,0.699424816 L77.7491125,22 L80.7920518,22 Z M95.3439299,4.85710427 C96.5490544,4.85710427 97.3323853,4.1641577 97.3323853,3.10967378 C97.3323853,1.99493363 96.5791825,1.30198706 95.3439299,1.30198706 C94.1388054,1.30198706 93.3554745,1.99493363 93.3554745,3.07954566 C93.3554745,4.1641577 94.1388054,4.85710427 95.3439299,4.85710427 Z M96.8503355,22 L96.8503355,8.98465562 L93.8073962,8.98465562 L93.8073962,22 L96.8503355,22 Z" id="metechi"></path>
                </g>
            </g>
        </g>
    </g>
</svg>