<?xml version="1.0" encoding="UTF-8"?>
<svg width="36px" height="36px" viewBox="0 0 36 36" version="1.1" xmlns="http://www.w3.org/2000/svg" xmlns:xlink="http://www.w3.org/1999/xlink">
    <!-- Generator: Sketch 60.1 (88133) - https://sketch.com -->
    <title>Artboard</title>
    <desc>Created with Sketch.</desc>
    <g id="Artboard" stroke="none" stroke-width="1" fill="none" fill-rule="evenodd">
        <g id="Group-Copy-3" transform="translate(1.000000, 8.000000)" fill-rule="nonzero">
            <path d="M24.7641429,11.88 C29.0132639,11.88 32.4578571,15.4259048 32.4578571,19.8 L32.4578571,19.8 L25.245,19.8 C25.245,16.6273932 23.8643149,13.7867474 21.6877348,11.8800523 Z" id="Combined-Shape" fill="#2B64F0"></path>
            <path d="M21.0375,0 C24.0251633,0 26.4471429,2.4932143 26.4471429,5.56875 C26.4471429,8.6442857 24.0251633,11.1375 21.0375,11.1375 C19.8599592,11.1375 18.7702928,10.7501993 17.8821536,10.0925936 C18.7358526,8.80257366 19.2342857,7.24558147 19.2342857,5.56875 C19.2342857,3.89148425 18.7355943,2.33411987 17.8825191,1.04520867 C18.7702928,0.387300652 19.8599592,0 21.0375,0 Z" id="Combined-Shape" fill="#0338C8"></path>
            <path d="M22.8407143,19.8 C22.8407143,15.4259048 19.3961211,11.88 15.147,11.88 L7.69371429,11.88 C3.44459322,11.88 0,15.4259048 0,19.8 L22.8407143,19.8 Z" id="Path" fill="#0044FF"></path>
            <path d="M11.4203571,11.1375 C14.4080204,11.1375 16.83,8.6442857 16.83,5.56875 C16.83,2.4932143 14.4080204,0 11.4203571,0 C8.43269389,0 6.01071429,2.4932143 6.01071429,5.56875 C6.01071429,8.6442857 8.43269389,11.1375 11.4203571,11.1375 Z" id="Path" fill="#5E91FF"></path>
        </g>
    </g>
</svg>