<?xml version="1.0" encoding="UTF-8"?>
<svg width="12px" height="12px" viewBox="0 0 12 12" version="1.1" xmlns="http://www.w3.org/2000/svg" xmlns:xlink="http://www.w3.org/1999/xlink">
    <!-- Generator: Sketch 61 (89581) - https://sketch.com -->
    <title>linkedin-icon</title>
    <desc>Created with Sketch.</desc>
    <g id="NEW" stroke="none" stroke-width="1" fill="none" fill-rule="evenodd">
        <g id="linkedin-icon" transform="translate(0.000000, 0.200000)" fill="#000000" fill-rule="nonzero">
            <path d="M2.84581093,11.650845 L0.59308435,11.650845 L0.59308435,3.78687337 L2.84573181,3.78687337 L2.84573181,11.650845 L2.84581093,11.650845 Z M1.74168057,2.89011856 C0.986077217,2.89011856 0.371387951,2.32013253 0.371387951,1.61959723 C0.371387951,0.919061924 0.986156338,0.349075894 1.74168057,0.349075894 C2.49720481,0.349075894 3.1119732,0.919061924 3.1119732,1.61959723 C3.1119732,2.32013253 2.49720481,2.89011856 1.74168057,2.89011856 Z M11.628612,11.650845 L9.32050093,11.650845 L9.32050093,6.98699205 C9.32097566,6.97749756 9.35468111,6.23708539 8.9348663,5.79480028 C8.72590834,5.57460718 8.43806698,5.46296777 8.07925429,5.46296777 C7.17664454,5.46296777 6.72075066,6.11286578 6.52753774,6.50649161 L6.52753774,11.650845 L4.27481116,11.650845 L4.27481116,3.78687337 L6.52745862,3.78687337 L6.52745862,4.45125048 C7.2648642,3.85301833 8.0930213,3.53740558 8.92758719,3.53740558 C11.0640854,3.53740558 11.628612,5.20629999 11.628612,6.08873394 L11.628612,11.650845 Z" id="Shape"></path>
        </g>
    </g>
</svg>