<?xml version="1.0" encoding="UTF-8"?>
<svg width="14px" height="12px" viewBox="0 0 14 12" version="1.1" xmlns="http://www.w3.org/2000/svg" xmlns:xlink="http://www.w3.org/1999/xlink">
    <!-- Generator: Sketch 61 (89581) - https://sketch.com -->
    <title>twitter-icon</title>
    <desc>Created with Sketch.</desc>
    <g id="NEW" stroke="none" stroke-width="1" fill="none" fill-rule="evenodd">
        <g id="twitter-icon" transform="translate(0.000000, 0.200000)" fill="#000000">
            <path d="M12.32352,3.2142887 C12.3286539,3.3300313 12.3312835,3.4464 12.3312835,3.56322783 C12.3312835,7.12787478 9.61815652,11.2380522 4.65658435,11.2380522 C3.13327304,11.2380522 1.71539478,10.7915687 0.521697391,10.026073 C0.732730435,10.0511583 0.947394783,10.0639304 1.16518957,10.0639304 C2.42896696,10.0639304 3.59202783,9.63272348 4.51525565,8.90909217 C3.33487304,8.88742957 2.33864348,8.10753391 1.99533913,7.03584 C2.16012522,7.06743652 2.32912696,7.08438261 2.5029287,7.08438261 C2.74893913,7.08438261 2.98726957,7.05124174 3.21362087,6.98971826 C1.97968696,6.74182957 1.04982261,5.65168696 1.04982261,4.34479304 C1.04982261,4.33339826 1.04982261,4.32208696 1.05007304,4.31081739 C1.41370435,4.51283478 1.82959304,4.63421217 2.27181913,4.64823652 C1.54797913,4.16452174 1.07190261,3.33883826 1.07190261,2.4030887 C1.07190261,1.9086887 1.20492522,1.44538435 1.43716174,1.04690087 C2.76751304,2.67894261 4.75513043,3.75276522 6.99693913,3.86537739 C6.95090087,3.66786783 6.92694261,3.4619687 6.92694261,3.25060174 C6.92694261,1.76101565 8.13478957,0.553293913 9.62437565,0.553293913 C10.4002643,0.553293913 11.1013148,0.88082087 11.5933357,1.40502261 C12.2076939,1.28418783 12.7850296,1.05958957 13.3062261,0.750511304 C13.1048765,1.38043826 12.6771757,1.90893913 12.1202087,2.24285217 C12.6659061,2.17761391 13.1857252,2.03257043 13.6694817,1.8180313 C13.3079374,2.3589287 12.8506435,2.83404522 12.32352,3.2142887 Z" id="Path"></path>
        </g>
    </g>
</svg>